<svg width="24" height="24" viewBox="0 0 24 24" fill="none" xmlns="http://www.w3.org/2000/svg">
<g clip-path="url(#clip0_62_823)">
<g clip-path="url(#clip1_62_823)">
<path d="M15.2589 6.01245C15.1682 6.01538 15.0803 6.04496 15.0063 6.09751C14.9322 6.15006 14.8753 6.22325 14.8426 6.30795C14.8099 6.39264 14.8028 6.4851 14.8223 6.57378C14.8418 6.66246 14.887 6.74344 14.9522 6.80661C15.0174 6.86979 15.0998 6.91236 15.189 6.92903C15.2783 6.94569 15.3704 6.93571 15.4541 6.90032C15.5377 6.86493 15.609 6.8057 15.6592 6.73003C15.7094 6.65435 15.7362 6.56558 15.7362 6.47478C15.7362 6.41279 15.7238 6.35143 15.6996 6.29434C15.6755 6.23725 15.6401 6.18561 15.5955 6.14248C15.551 6.09934 15.4983 6.0656 15.4405 6.04327C15.3826 6.02093 15.3209 6.01045 15.2589 6.01245Z" fill="#798291"/>
<path d="M20.4039 3.59594C18.1778 1.35891 15.163 0.084429 12.0073 0.0463867C10.4398 0.0588431 8.89012 0.380055 7.44683 0.991663C6.00353 1.60327 4.6949 2.49329 3.59572 3.61086C1.34956 5.81983 0.0682137 8.82752 0.03125 11.9777C0.0437064 13.5452 0.364915 15.0948 0.976524 16.5381C1.58813 17.9814 2.47815 19.29 3.59572 20.3892C5.8203 22.6394 8.84326 23.9204 12.0073 23.9537C14.0877 23.9233 16.1255 23.3586 17.9249 22.3139C19.7243 21.2693 21.2251 19.7797 22.2831 17.988C23.3693 16.1865 23.9514 14.1261 23.9684 12.0224C23.9579 10.4524 23.6376 8.89992 23.0259 7.45393C22.4143 6.00794 21.5232 4.69689 20.4039 3.59594ZM11.4554 21.0305V22.9544C9.85806 22.8697 8.29937 22.4317 6.89173 21.6718L7.84624 20.0164C8.97674 20.6142 10.2233 20.9602 11.5002 21.0305H11.4554ZM3.9984 16.1089L2.35785 17.0634C1.60449 15.6843 1.16164 14.1573 1.06032 12.5891H2.99915C3.08163 13.8176 3.41672 15.0158 3.98348 16.1089H3.9984ZM4.52039 7.0411L2.86492 6.0866C3.7212 4.81027 4.82102 3.71553 6.10129 2.86515L7.02596 4.52062C6.03313 5.19282 5.17769 6.04828 4.50548 7.0411H4.52039ZM1.06032 11.5153C1.15082 9.92171 1.59399 8.36807 2.35785 6.96653L3.9984 7.92103C3.4165 9.03562 3.07602 10.2603 2.99915 11.5153H1.06032ZM4.52039 16.9888C5.18397 17.9928 6.04078 18.8547 7.04087 19.5242L6.10129 21.1648C4.81565 20.3159 3.71067 19.2211 2.85001 17.9433L4.52039 16.9888ZM19.4345 7.05602C18.7854 6.0601 17.9498 5.19915 16.9737 4.52062L17.9133 2.86515C19.1968 3.7115 20.2973 4.80696 21.1496 6.0866L19.4345 7.05602ZM17.0035 2.35807L16.049 4.01354C14.948 3.43994 13.7386 3.10455 12.4994 3.02921V1.09037C14.0945 1.16585 15.6531 1.59369 17.0632 2.34316L17.0035 2.35807ZM20.0271 12.0288C20.03 13.62 19.5199 15.1698 18.6378 16.4941C17.7556 17.8183 16.5003 18.851 15.0308 19.4612C13.5613 20.0715 11.9437 20.232 10.383 19.9223C8.82226 19.6126 7.38854 18.8467 6.26341 17.7215C5.13828 16.5964 4.37236 15.1627 4.06266 13.6019C3.75296 12.0412 3.91341 10.4236 4.52369 8.95415C5.13396 7.48466 6.16662 6.22934 7.49086 5.34717C8.8151 4.465 10.3714 3.99567 11.9625 3.99862C14.0823 4.01383 16.1123 4.85657 17.6196 6.34715C19.1269 7.83772 19.9922 9.85818 20.0311 11.9777L20.0271 12.0288ZM17.8685 21.1648L16.9289 19.5242C17.9258 18.8508 18.7819 17.9896 19.4494 16.9888L21.1049 17.9433C20.2641 19.2132 19.1792 20.3032 17.9133 21.1498L17.8685 21.1648ZM12.4547 21.0454C13.7163 20.9687 14.947 20.6229 16.0639 20.0313L17.0184 21.6867C15.6108 22.4466 14.0521 22.8847 12.4547 22.9694V21.0454ZM22.8946 12.5295C22.7932 14.0976 22.3504 15.6247 21.597 17.0037L19.9565 16.0492C20.5384 14.9346 20.8789 13.7099 20.9557 12.4549L22.8946 12.5295ZM22.8946 11.5153H20.9557C20.8789 10.2603 20.5384 9.03562 19.9565 7.92103L21.597 6.96653C22.3796 8.35867 22.8432 9.90726 22.9542 11.5004L22.8946 11.5153ZM11.5002 3.02921C10.2396 3.10083 9.00892 3.44155 7.89098 4.02845L6.93647 2.37299C8.34411 1.61313 9.9028 1.17507 11.5002 1.09037V3.02921Z" fill="#798291"/>
<path d="M18.7036 10.0086C18.3874 8.96788 17.8363 8.01368 17.0929 7.21971C17.0078 7.12873 16.8901 7.07526 16.7657 7.07107C16.6412 7.06687 16.5202 7.11229 16.4292 7.19734C16.3382 7.28238 16.2847 7.40008 16.2805 7.52454C16.2763 7.649 16.3218 7.77004 16.4068 7.86102C17.0587 8.54408 17.5392 9.37214 17.8087 10.2771C17.8258 10.3362 17.8545 10.3913 17.8931 10.4392C17.9318 10.4871 17.9796 10.5268 18.0337 10.5559C18.0879 10.5851 18.1474 10.6032 18.2086 10.6091C18.2698 10.615 18.3316 10.6086 18.3904 10.5903C18.5075 10.5524 18.6055 10.4708 18.6639 10.3624C18.7222 10.254 18.7365 10.1273 18.7036 10.0086Z" fill="#798291"/>
<path d="M16.6601 10.606C16.3712 10.6082 16.0901 10.6997 15.8551 10.8679C15.6202 11.0361 15.443 11.2728 15.3477 11.5455H14.2888C14.1945 11.0985 13.9724 10.6885 13.6493 10.3655C13.3263 10.0425 12.9163 9.82029 12.4693 9.72603V8.66713C12.7807 8.55638 13.0429 8.33919 13.2097 8.0539C13.3765 7.76861 13.4372 7.43356 13.381 7.10789C13.3248 6.78222 13.1554 6.48688 12.9026 6.27398C12.6498 6.06109 12.33 5.94434 11.9995 5.94434C11.669 5.94434 11.3492 6.06109 11.0964 6.27398C10.8436 6.48688 10.6742 6.78222 10.618 7.10789C10.5618 7.43356 10.6224 7.76861 10.7893 8.0539C10.9561 8.33919 11.2183 8.55638 11.5297 8.66713V9.72603C11.0827 9.82029 10.6727 10.0425 10.3497 10.3655C10.0266 10.6885 9.80444 11.0985 9.71018 11.5455H8.65128C8.55668 11.3098 8.39977 11.1041 8.19736 10.9506C7.99494 10.7971 7.7546 10.7014 7.50205 10.6739C7.24949 10.6464 6.9942 10.688 6.76346 10.7943C6.53273 10.9007 6.33522 11.0677 6.19206 11.2776C6.04889 11.4874 5.96543 11.7323 5.95063 11.9859C5.93582 12.2395 5.99022 12.4924 6.10799 12.7175C6.22576 12.9426 6.40249 13.1315 6.61929 13.2639C6.83608 13.3964 7.08479 13.4674 7.33883 13.4695C7.62882 13.4716 7.91204 13.3819 8.14784 13.2131C8.38363 13.0443 8.55988 12.8051 8.65128 12.5299H9.71018C9.80086 12.9785 10.0219 13.3904 10.3455 13.7141C10.6691 14.0377 11.0811 14.2587 11.5297 14.3494V15.4083C11.2642 15.5172 11.0358 15.7003 10.8718 15.9357C10.7077 16.1712 10.6151 16.4489 10.605 16.7357C10.6407 17.0806 10.8031 17.4001 11.0606 17.6324C11.3182 17.8646 11.6527 17.9932 11.9995 17.9932C12.3463 17.9932 12.6808 17.8646 12.9384 17.6324C13.1959 17.4001 13.3582 17.0806 13.394 16.7357C13.3839 16.4489 13.2912 16.1712 13.1272 15.9357C12.9632 15.7003 12.7348 15.5172 12.4693 15.4083V14.3494C12.9179 14.2587 13.3298 14.0377 13.6535 13.7141C13.9771 13.3904 14.1981 12.9785 14.2888 12.5299H15.3477C15.4411 12.8039 15.6178 13.0418 15.8532 13.2102C16.0885 13.3787 16.3707 13.4694 16.6601 13.4695C17.032 13.4695 17.3885 13.3218 17.6515 13.0589C17.9144 12.7959 18.0621 12.4394 18.0621 12.0675C18.0621 11.6957 17.9144 11.3391 17.6515 11.0762C17.3885 10.8133 17.032 10.6656 16.6601 10.6656V10.606ZM7.33883 12.4702C7.24739 12.4702 7.158 12.4431 7.08197 12.3923C7.00594 12.3415 6.94669 12.2693 6.91169 12.1848C6.8767 12.1003 6.86755 12.0074 6.88539 11.9177C6.90322 11.828 6.94726 11.7456 7.01191 11.681C7.07657 11.6163 7.15895 11.5723 7.24863 11.5544C7.33832 11.5366 7.43129 11.5457 7.51577 11.5807C7.60025 11.6157 7.67245 11.675 7.72326 11.751C7.77406 11.8271 7.80118 11.9164 7.80118 12.0079C7.80118 12.1305 7.75247 12.2481 7.66576 12.3348C7.57906 12.4215 7.46145 12.4702 7.33883 12.4702ZM12.007 6.87743C12.1013 6.87743 12.1936 6.90543 12.2721 6.95787C12.3506 7.01031 12.4117 7.08484 12.4479 7.17205C12.484 7.25926 12.4934 7.35522 12.475 7.44779C12.4566 7.54037 12.4112 7.62541 12.3444 7.69215C12.2777 7.7589 12.1926 7.80435 12.1001 7.82277C12.0075 7.84118 11.9115 7.83173 11.8243 7.79561C11.7371 7.75949 11.6626 7.69832 11.6101 7.61983C11.5577 7.54135 11.5297 7.44908 11.5297 7.35469C11.5276 7.29145 11.5386 7.22847 11.5618 7.16962C11.5851 7.11078 11.6201 7.05734 11.6649 7.0126C11.7096 6.96786 11.7631 6.93279 11.8219 6.90954C11.8807 6.88629 11.9437 6.87536 12.007 6.87743ZM12.007 17.1383C11.9114 17.1413 11.8171 17.1154 11.7363 17.0641C11.6556 17.0129 11.5922 16.9385 11.5542 16.8507C11.5162 16.7629 11.5055 16.6658 11.5235 16.5718C11.5414 16.4779 11.5872 16.3915 11.6548 16.3238C11.7224 16.2562 11.8088 16.2105 11.9028 16.1925C11.9967 16.1746 12.0939 16.1853 12.1817 16.2233C12.2694 16.2612 12.3438 16.3247 12.3951 16.4054C12.4464 16.4861 12.4722 16.5804 12.4693 16.676C12.4693 16.7986 12.4206 16.9162 12.3339 17.0029C12.2472 17.0896 12.1296 17.1383 12.007 17.1383ZM12.007 13.4098C11.7291 13.4128 11.4566 13.3331 11.2241 13.1808C10.9916 13.0286 10.8095 12.8107 10.7011 12.5548C10.5928 12.2989 10.5629 12.0166 10.6153 11.7436C10.6677 11.4707 10.8 11.2195 10.9954 11.022C11.1909 10.8244 11.4407 10.6894 11.713 10.6341C11.9853 10.5788 12.268 10.6057 12.525 10.7113C12.7821 10.817 13.0019 10.9966 13.1566 11.2275C13.3113 11.4583 13.3939 11.73 13.394 12.0079C13.402 12.1957 13.3721 12.3832 13.3062 12.5592C13.2403 12.7353 13.1396 12.8963 13.0102 13.0326C12.8808 13.169 12.7253 13.2779 12.553 13.353C12.3806 13.428 12.1949 13.4676 12.007 13.4695V13.4098ZM16.6601 12.4702C16.5687 12.4702 16.4793 12.4431 16.4033 12.3923C16.3273 12.3415 16.268 12.2693 16.233 12.1848C16.198 12.1003 16.1889 12.0074 16.2067 11.9177C16.2245 11.828 16.2686 11.7456 16.3332 11.681C16.3979 11.6163 16.4803 11.5723 16.5699 11.5544C16.6596 11.5366 16.7526 11.5457 16.8371 11.5807C16.9216 11.6157 16.9938 11.675 17.0446 11.751C17.0954 11.8271 17.1225 11.9164 17.1225 12.0079C17.1225 12.1305 17.0738 12.2481 16.9871 12.3348C16.9004 12.4215 16.7828 12.4702 16.6601 12.4702Z" fill="#798291"/>
</g>
</g>
<defs>
<clipPath id="clip0_62_823">
<rect width="24" height="24" fill="white"/>
</clipPath>
<clipPath id="clip1_62_823">
<rect width="24" height="24" fill="white"/>
</clipPath>
</defs>
</svg>
