<svg width="24" height="24" viewBox="0 0 24 24" fill="none" xmlns="http://www.w3.org/2000/svg">
<g clip-path="url(#clip0_62_811)">
<path d="M19.0339 12.4374C18.9495 12.3512 18.8488 12.2826 18.7377 12.2357C18.6265 12.1887 18.5072 12.1644 18.3865 12.1641C18.2659 12.1637 18.1464 12.1874 18.035 12.2337C17.9236 12.2801 17.8225 12.3481 17.7377 12.4339C17.6529 12.5197 17.5859 12.6215 17.5408 12.7334C17.4958 12.8453 17.4734 12.965 17.475 13.0857C17.4767 13.2063 17.5024 13.3254 17.5505 13.436C17.5987 13.5466 17.6684 13.6465 17.7555 13.73C18.5268 14.4889 19.1387 15.3943 19.5553 16.3929C19.972 17.3915 20.185 18.4633 20.1818 19.5454C20.1818 20.6573 16.9946 22.2726 12 22.2726C7.00538 22.2726 3.81822 20.6565 3.81822 19.5436C3.81516 18.4689 4.02528 17.4044 4.43643 16.4115C4.84758 15.4186 5.45158 14.5172 6.21348 13.7593C6.29965 13.6753 6.36829 13.575 6.4154 13.4643C6.46251 13.3535 6.48716 13.2345 6.48792 13.1142C6.48869 12.9938 6.46554 12.8745 6.41984 12.7632C6.37414 12.6518 6.30678 12.5507 6.22168 12.4656C6.13657 12.3805 6.03542 12.3131 5.92408 12.2674C5.81275 12.2217 5.69344 12.1986 5.57309 12.1993C5.45274 12.2001 5.33374 12.2247 5.223 12.2719C5.11225 12.319 5.01196 12.3876 4.92794 12.4738C3.99651 13.4003 3.25813 14.5024 2.75555 15.7163C2.25297 16.9301 1.99618 18.2316 2.00004 19.5454C2.00004 22.4977 7.15184 24.0908 12 24.0908C16.8482 24.0908 22 22.4977 22 19.5454C22.004 18.2228 21.7437 16.9127 21.2343 15.692C20.725 14.4714 19.9769 13.3649 19.0339 12.4374Z" fill="#798291"/>
<path d="M12.0003 13.1818C13.2589 13.1818 14.4893 12.8086 15.5358 12.1093C16.5822 11.4101 17.3979 10.4162 17.8795 9.25345C18.3612 8.09065 18.4872 6.81114 18.2417 5.57672C17.9961 4.3423 17.39 3.20842 16.5001 2.31845C15.6101 1.42848 14.4762 0.822409 13.2418 0.576868C12.0074 0.331326 10.7279 0.457347 9.56508 0.938994C8.40228 1.42064 7.40842 2.23628 6.70918 3.28277C6.00994 4.32926 5.63672 5.5596 5.63672 6.8182C5.63867 8.50534 6.30974 10.1228 7.50273 11.3158C8.69571 12.5088 10.3132 13.1799 12.0003 13.1818ZM12.0003 2.27277C12.8993 2.27277 13.7781 2.53935 14.5256 3.03881C15.2731 3.53827 15.8557 4.24817 16.1998 5.07874C16.5438 5.90931 16.6338 6.82324 16.4584 7.70497C16.283 8.5867 15.8501 9.39662 15.2144 10.0323C14.5787 10.668 13.7688 11.1009 12.8871 11.2763C12.0054 11.4517 11.0914 11.3617 10.2609 11.0176C9.4303 10.6736 8.7204 10.091 8.22094 9.34351C7.72148 8.59602 7.45489 7.7172 7.45489 6.8182C7.45631 5.61311 7.93566 4.45779 8.78779 3.60566C9.63991 2.75353 10.7952 2.27419 12.0003 2.27277Z" fill="#798291"/>
</g>
<defs>
<clipPath id="clip0_62_811">
<rect width="24" height="24" fill="white"/>
</clipPath>
</defs>
</svg>
