<svg width="24" height="24" viewBox="0 0 24 24" fill="none" xmlns="http://www.w3.org/2000/svg">
<g clip-path="url(#clip0_62_833)">
<g clip-path="url(#clip1_62_833)">
<path d="M16.2352 1.41064C15.251 1.41064 14.4215 2.08564 14.1851 2.99699L6.23836 5.6459H2.11762C0.949969 5.64594 0 6.59591 0 7.76357V11.9988C0 13.1665 0.949969 14.1164 2.11762 14.1164H2.14547L2.86955 20.887C2.96906 21.8137 4.10794 22.8626 5.4548 22.5239C6.56803 22.2458 7.25494 21.1278 7.00927 20.0135L6.85556 18.3494C6.87033 18.3504 6.885 18.3517 6.89995 18.3517H7.76461C8.93227 18.3517 9.88223 17.4017 9.88223 16.2341V15.3311L14.185 16.7654C14.4214 17.6767 15.2509 18.3517 16.2352 18.3517C17.4028 18.3517 18.3528 17.4017 18.3528 16.2341V3.52832C18.3528 2.36061 17.4029 1.41064 16.2352 1.41064ZM5.11158 21.1545C4.75078 21.2452 4.37911 21.0384 4.26722 20.6798L3.56531 14.1165H5.04694C5.64712 20.6156 5.60672 20.2203 5.62598 20.2977C5.72034 20.6758 5.49009 21.06 5.11158 21.1545ZM5.64703 12.7047C5.02102 12.7047 2.56758 12.7047 2.11762 12.7047C1.72842 12.7047 1.41173 12.3881 1.41173 11.9988V7.76357C1.41173 7.37436 1.72837 7.05768 2.11762 7.05768H5.64703V12.7047ZM8.47055 16.2341C8.47055 16.6233 8.15391 16.94 7.76466 16.94H6.9C6.84037 16.94 6.78277 16.9482 6.7275 16.9621L6.47189 14.1944L8.47055 14.8605V16.2341ZM14.1176 15.2548L7.05881 12.9018V6.86057L14.1176 4.50763V15.2548ZM16.9411 16.2341C16.9411 16.6233 16.6245 16.94 16.2352 16.94C15.846 16.94 15.5293 16.6234 15.5293 16.2341V3.52832C15.5293 3.13911 15.846 2.82243 16.2352 2.82243C16.6244 2.82243 16.9411 3.13907 16.9411 3.52832V16.2341Z" fill="#798291"/>
<path d="M23.2939 8.46949H20.4704C20.0806 8.46949 19.7645 8.78552 19.7645 9.17538C19.7645 9.56518 20.0806 9.88126 20.4704 9.88126H23.2939C23.6837 9.88126 23.9998 9.56523 23.9998 9.17538C23.9998 8.78552 23.6838 8.46949 23.2939 8.46949Z" fill="#798291"/>
<path d="M23.9253 4.62443C23.751 4.27573 23.3269 4.1344 22.9783 4.30878L20.1548 5.72051C19.8061 5.89489 19.6647 6.31887 19.8391 6.66758C20.0136 7.01647 20.4376 7.15756 20.7862 6.98324L23.6097 5.5715C23.9584 5.39712 24.0997 4.97314 23.9253 4.62443Z" fill="#798291"/>
<path d="M23.6096 12.7793L20.7861 11.3675C20.4375 11.1932 20.0134 11.3345 19.8391 11.6832C19.6647 12.0319 19.8061 12.4558 20.1547 12.6302L22.9782 14.042C23.327 14.2164 23.751 14.0749 23.9253 13.7263C24.0996 13.3776 23.9583 12.9536 23.6096 12.7793Z" fill="#798291"/>
<path d="M16.2352 1.41064C15.251 1.41064 14.4215 2.08564 14.1851 2.99699L6.23836 5.6459H2.11762C0.949969 5.64594 0 6.59591 0 7.76357V11.9988C0 13.1665 0.949969 14.1164 2.11762 14.1164H2.14547L2.86955 20.887C2.96906 21.8137 4.10794 22.8626 5.4548 22.5239C6.56803 22.2458 7.25494 21.1278 7.00927 20.0135L6.85556 18.3494C6.87033 18.3504 6.885 18.3517 6.89995 18.3517H7.76461C8.93227 18.3517 9.88223 17.4017 9.88223 16.2341V15.3311L14.185 16.7654C14.4214 17.6767 15.2509 18.3517 16.2352 18.3517C17.4028 18.3517 18.3528 17.4017 18.3528 16.2341V3.52832C18.3528 2.36061 17.4029 1.41064 16.2352 1.41064ZM5.11158 21.1545C4.75078 21.2452 4.37911 21.0384 4.26722 20.6798L3.56531 14.1165H5.04694C5.64712 20.6156 5.60672 20.2203 5.62598 20.2977C5.72034 20.6758 5.49009 21.06 5.11158 21.1545ZM5.64703 12.7047C5.02102 12.7047 2.56758 12.7047 2.11762 12.7047C1.72842 12.7047 1.41173 12.3881 1.41173 11.9988V7.76357C1.41173 7.37436 1.72837 7.05768 2.11762 7.05768H5.64703V12.7047ZM8.47055 16.2341C8.47055 16.6233 8.15391 16.94 7.76466 16.94H6.9C6.84037 16.94 6.78277 16.9482 6.7275 16.9621L6.47189 14.1944L8.47055 14.8605V16.2341ZM14.1176 15.2548L7.05881 12.9018V6.86057L14.1176 4.50763V15.2548ZM16.9411 16.2341C16.9411 16.6233 16.6245 16.94 16.2352 16.94C15.846 16.94 15.5293 16.6234 15.5293 16.2341V3.52832C15.5293 3.13911 15.846 2.82243 16.2352 2.82243C16.6244 2.82243 16.9411 3.13907 16.9411 3.52832V16.2341Z" stroke="#798291" stroke-width="0.1"/>
<path d="M23.2939 8.46949H20.4704C20.0806 8.46949 19.7645 8.78552 19.7645 9.17538C19.7645 9.56518 20.0806 9.88126 20.4704 9.88126H23.2939C23.6837 9.88126 23.9998 9.56523 23.9998 9.17538C23.9998 8.78552 23.6838 8.46949 23.2939 8.46949Z" stroke="#798291" stroke-width="0.1"/>
<path d="M23.9253 4.62443C23.751 4.27573 23.3269 4.1344 22.9783 4.30878L20.1548 5.72051C19.8061 5.89489 19.6647 6.31887 19.8391 6.66758C20.0136 7.01647 20.4376 7.15756 20.7862 6.98324L23.6097 5.5715C23.9584 5.39712 24.0997 4.97314 23.9253 4.62443Z" stroke="#798291" stroke-width="0.1"/>
<path d="M23.6096 12.7793L20.7861 11.3675C20.4375 11.1932 20.0134 11.3345 19.8391 11.6832C19.6647 12.0319 19.8061 12.4558 20.1547 12.6302L22.9782 14.042C23.327 14.2164 23.751 14.0749 23.9253 13.7263C24.0996 13.3776 23.9583 12.9536 23.6096 12.7793Z" stroke="#798291" stroke-width="0.1"/>
</g>
</g>
<defs>
<clipPath id="clip0_62_833">
<rect width="24" height="24" fill="white"/>
</clipPath>
<clipPath id="clip1_62_833">
<rect width="24" height="24" fill="white"/>
</clipPath>
</defs>
</svg>
